<?xml version="1.0" encoding="utf-8"?>
<!DOCTYPE svg PUBLIC "-//W3C//DTD SVG 1.1//EN" "http://www.w3.org/Graphics/SVG/1.1/DTD/svg11.dtd">
<svg version="1.1" id="Layer_1" xmlns="http://www.w3.org/2000/svg" xmlns:xlink="http://www.w3.org/1999/xlink" x="0px" y="0px"
	 width="1047.762px" height="216px" viewBox="0 0 1047.762 216" enable-background="new 0 0 1047.762 216" xml:space="preserve">
<g>
	<path fill="#FFFFFF" d="M111.467,206.646c-54.75,0-99.003-42.848-99.003-95.642c0-52.87,44.252-95.68,99.003-95.68
		c54.646,0,98.93,42.811,98.93,95.68C210.396,163.799,166.113,206.646,111.467,206.646 M111.467,9.076
		C53.22,9.076,5.99,54.736,5.99,111.004c0,56.265,47.23,101.884,105.477,101.884c58.192,0,105.408-45.619,105.408-101.884
		C216.875,54.736,169.659,9.076,111.467,9.076"/>
	<path fill="#FFFFFF" d="M20.565,110.308c36.004,10.955,69.939,44.882,80.222,88.275C50.191,192.218,20.693,152.034,20.565,110.308"
		/>
	<path fill="#FFFFFF" d="M201.856,110.308c-35.993,10.955-70.353,44.882-80.217,88.275
		C172.23,192.218,201.753,152.034,201.856,110.308"/>
	<path fill="#FFFFFF" d="M111.337,198.583c-38.365-57.246-30.083-135.756,0.031-178.038
		C140.092,62.827,149.069,141.337,111.337,198.583"/>
	<polygon fill="#FFFFFF" points="245.442,20.989 268.639,20.989 268.639,51.639 311.33,51.639 311.33,20.989 334.539,20.989 
		334.539,100.843 311.33,100.843 311.33,66.405 268.639,66.405 268.639,100.843 245.442,100.843 	"/>
	<polygon fill="#FFFFFF" points="353.154,20.989 432.046,20.989 432.046,35.762 376.354,35.762 376.354,52.857 427.466,52.857 
		427.466,66.509 376.354,66.509 376.354,86.072 433.227,86.072 433.227,100.843 353.154,100.843 	"/>
	<path fill="#FFFFFF" d="M447.114,20.989h56.89c18.913,0,30.883,9.956,30.883,22.036c0,9.391-4.88,16.445-16.701,20.021v0.216
		c11.38,2.356,14.621,10.521,15.355,18.685c0.444,5.036,0.154,14.541,4.436,18.896h-23.188c-2.662-5.019-2.519-12.738-3.691-19.123
		c-1.631-8.389-5.907-12.072-17.587-12.072h-23.199v31.195h-23.196V20.989z M470.311,57.118h25.42
		c10.483,0,15.944-3.356,15.944-11.409c0-7.711-5.461-11.07-15.944-11.07h-25.42V57.118z"/>
	<path fill="#FFFFFF" d="M552.021,20.991h49.642c20.091,0,33.684,4.919,33.684,19.801c0,7.937-5.019,13.193-14.337,16.666
		c13.007,2.782,19.365,10.287,19.365,20.235c0,16.223-18.174,23.153-37.233,23.153h-51.12V20.991z M598.699,53.313
		c8.281,0,14.191-2.802,14.191-9.506c0-7.496-7.691-9.167-15.964-9.167h-21.711v18.673H598.699z M600.026,87.199
		c9.031,0,17.149-2.235,17.149-10.502c0-8.168-6.643-11.418-16.696-11.418h-25.264v21.92H600.026z"/>
	<path fill="#FFFFFF" d="M680.107,20.991h23.798l39.447,79.846h-24.085l-7.985-17.78h-39.446l-8.266,17.78h-23.492L680.107,20.991z
		 M705.229,69.979l-13.3-29.3h-0.293l-13.729,29.3H705.229z"/>
	<polygon fill="#FFFFFF" points="750.735,20.989 773.931,20.989 773.931,86.072 825.354,86.072 825.354,100.843 750.735,100.843 	
		"/>
	<rect x="833.629" y="20.983" fill="#FFFFFF" width="23.202" height="79.854"/>
	<polygon fill="#FFFFFF" points="875.437,20.989 949.617,20.989 949.617,35.762 898.643,35.762 898.643,54.21 942.812,54.21 
		942.812,67.855 898.643,67.855 898.643,100.843 875.437,100.843 	"/>
	<polygon fill="#FFFFFF" points="961.284,20.989 1040.184,20.989 1040.184,35.762 984.477,35.762 984.477,52.857 1035.598,52.857 
		1035.598,66.509 984.477,66.509 984.477,86.072 1041.366,86.072 1041.366,100.843 961.284,100.843 	"/>
	<polygon fill="#FFFFFF" points="245.434,119.229 268.473,119.229 312.518,172.799 312.809,172.799 312.809,119.229 
		334.523,119.229 334.523,199.081 311.321,199.081 267.448,145.612 267.146,145.612 267.146,199.081 245.434,199.081 	"/>
	<path fill="#FFFFFF" d="M443.132,168.877c0,21.594-16.839,32.104-45.066,32.104c-28.519,0-44.913-10.276-44.913-32.104v-49.642
		h23.197v49.642c0,8.735,2.961,17.351,21.716,17.351c16.556,0,21.87-5.378,21.87-17.351v-49.642h23.196V168.877z"/>
	<polygon fill="#FFFFFF" points="486.039,133.992 454.433,133.992 454.433,119.229 540.854,119.229 540.854,133.992 
		509.237,133.992 509.237,199.081 486.039,199.081 	"/>
	<path fill="#FFFFFF" d="M552.405,119.229h56.886c18.931,0,30.878,9.952,30.878,22.026c0,9.395-4.864,16.443-16.701,20.024v0.233
		c11.38,2.345,14.637,10.51,15.378,18.663c0.435,5.037,0.142,14.549,4.423,18.905h-23.193c-2.654-5.041-2.516-12.752-3.7-19.12
		c-1.621-8.386-5.893-12.081-17.575-12.081h-23.199v31.2h-23.195V119.229z M575.601,155.356h25.412
		c10.485,0,15.964-3.354,15.964-11.406c0-7.727-5.479-11.078-15.964-11.078h-25.412V155.356z"/>
	<rect x="662.035" y="119.229" fill="#FFFFFF" width="23.195" height="79.852"/>
	<polygon fill="#FFFFFF" points="730.446,133.992 698.82,133.992 698.82,119.229 785.261,119.229 785.261,133.992 753.648,133.992 
		753.648,199.081 730.446,199.081 	"/>
	<rect x="798.852" y="119.229" fill="#FFFFFF" width="23.205" height="79.852"/>
	<path fill="#FFFFFF" d="M886.767,117.322c32.492,0,51.854,18.458,51.854,42.17c0,23.054-19.362,41.489-51.854,41.489
		c-32.505,0-51.864-18.436-51.864-41.489C834.902,135.78,854.262,117.322,886.767,117.322 M886.767,186.229
		c20.832,0,28.659-13.42,28.659-26.736c0-13.975-7.827-27.41-28.659-27.41c-20.844,0-28.668,13.436-28.668,27.41
		C858.099,172.809,865.923,186.229,886.767,186.229"/>
	<polygon fill="#FFFFFF" points="952.228,119.229 975.291,119.229 1019.314,172.799 1019.611,172.799 1019.611,119.229 
		1041.335,119.229 1041.335,199.081 1018.143,199.081 974.25,145.612 973.948,145.612 973.948,199.081 952.228,199.081 	"/>
</g>
</svg>
